<?xml version="1.0" encoding="utf-8"?>
<!-- Generator: Adobe Illustrator 24.1.0, SVG Export Plug-In . SVG Version: 6.00 Build 0)  -->
<svg version="1.1" id="Layer_1" xmlns="http://www.w3.org/2000/svg" xmlns:xlink="http://www.w3.org/1999/xlink" x="0px" y="0px"
	 viewBox="0 0 166.5 115.4" style="enable-background:new 0 0 166.5 115.4;" xml:space="preserve">
<style type="text/css">
	.st0{fill:#08081B;}
</style>
<path class="st0" d="M123.5,33.8c0,0-13.5,42.4-14.6,45.9C108.5,76.1,98.6,0,98.6,0c-23,0-35.3,16.4-41.8,33.7
	c0,0-16.4,42.5-17.8,46.1c-0.1-3.3-2.5-45.6-2.5-45.6C35.1,13,15.7,0.1,0,0.1l19,115.3c24.1-0.1,37.1-16.4,43.9-33.7
	c0,0,14.5-37.5,15.1-39.2c0.1,1.6,10.4,72.9,10.4,72.9c24.2,0,37.2-15.3,44.2-32l33.9-83.3C142.6,0.1,130,16.4,123.5,33.8z"/>
</svg>
